<svg version="1.1" id="Layer_1" xmlns="http://www.w3.org/2000/svg" xmlns:xlink="http://www.w3.org/1999/xlink" x="0px" y="0px"
	 width="100%" viewBox="0 0 254 199" enable-background="new 0 0 254 199" xml:space="preserve">
<path fill="#F4F5F5" opacity="1.000000" stroke="none" 
	d="
M157.000000,200.000000 
	C106.000000,200.000000 55.499886,199.955963 5.000282,200.097519 
	C1.575009,200.107117 0.896430,199.424561 0.903336,195.999817 
	C1.034408,131.000092 1.000000,66.000023 1.000000,1.000011 
	C84.333321,1.000000 167.666687,1.026935 250.999832,0.904034 
	C254.424057,0.898984 255.103821,1.575337 255.096725,5.000164 
	C254.964890,68.666550 254.964905,132.333374 255.096725,195.999756 
	C255.103821,199.424423 254.426819,200.118301 250.999496,200.099625 
	C219.833740,199.929810 188.666687,200.000000 157.000000,200.000000 
z"/>
<path fill="#0272A1" opacity="1.000000" stroke="none" 
	d="
M110.725235,14.281258 
	C112.487915,13.889378 113.976067,13.680560 115.464294,13.679966 
	C159.103989,13.662546 202.743881,13.725803 246.383087,13.577330 
	C250.975159,13.561707 251.579620,14.583461 250.040817,18.807596 
	C228.832199,77.026207 207.769592,135.298004 186.410400,193.802185 
	C184.910751,194.765259 183.548645,194.476288 182.239822,194.476730 
	C138.158478,194.491684 94.077118,194.491119 49.995773,194.479721 
	C48.678757,194.479370 47.328236,194.697479 45.704372,193.854202 
	C43.600224,191.345261 44.706795,189.134033 45.500507,186.973679 
	C55.896778,158.676605 66.471245,130.445679 77.013550,102.202866 
	C87.322327,74.585693 97.462074,46.905582 107.879951,19.329069 
	C108.523430,17.625742 108.927559,15.791260 110.725235,14.281258 
z"/>
<path fill="#FBFCFD" opacity="1.000000" stroke="none" 
	d="
M110.531395,14.000049 
	C102.294502,37.658653 93.643692,61.336369 84.871284,84.968941 
	C71.707024,120.433037 58.457489,155.865479 45.221420,191.671432 
	C45.404430,192.983765 45.028717,193.767654 44.255821,194.747253 
	C37.761860,194.538162 31.409918,195.989853 24.932419,193.783905 
	C23.384665,191.428589 24.330492,189.559494 25.002966,187.697479 
	C41.920719,140.853745 59.132534,94.117096 76.120369,47.298927 
	C79.472404,38.060787 82.904984,28.851366 86.153175,19.575357 
	C86.808426,17.704130 87.202682,15.685672 89.193596,14.142176 
	C96.385910,13.982887 103.224487,13.990922 110.531395,14.000049 
z"/>
<path fill="#0373A1" opacity="1.000000" stroke="none" 
	d="
M89.055984,13.851355 
	C79.563217,41.591038 69.595146,69.213036 59.590763,96.821877 
	C48.006367,128.791046 36.390038,160.748657 24.723553,193.064697 
	C24.659533,193.418106 24.264757,193.661758 24.095966,193.820862 
	C17.941317,195.107361 11.905750,194.242599 5.470299,194.213959 
	C13.101531,171.498154 21.106688,148.979385 29.228182,126.502647 
	C42.263767,90.425842 55.434456,54.397671 68.365936,18.283730 
	C69.649689,14.698564 71.247574,13.257020 75.085526,13.580026 
	C79.551079,13.955852 84.069275,13.706111 89.055984,13.851355 
z"/>
<path fill="#006798" opacity="1.000000" stroke="none" 
	d="
M44.492756,195.045044 
	C43.966251,194.080383 44.006092,193.203110 45.018616,192.312500 
	C46.701115,194.517242 49.156975,193.996964 51.437725,193.997437 
	C96.022659,194.006683 140.607605,194.011948 185.671066,194.032822 
	C185.034698,195.997253 183.157272,195.071640 181.663528,195.073257 
	C136.094727,195.122681 90.525856,195.105087 44.492756,195.045044 
z"/>
<path fill="#006798" opacity="1.000000" stroke="none" 
	d="
M5.171511,194.422287 
	C11.029515,193.995377 17.014870,193.992706 23.463701,193.985001 
	C20.754391,196.551453 17.085669,194.666138 13.669133,195.040100 
	C10.919057,195.341141 8.091848,194.937500 5.171511,194.422287 
z"/>
<path fill="#ECF5F8" opacity="1.000000" stroke="none" 
	d="
M158.393784,130.632263 
	C153.651779,123.988388 149.140854,117.619667 144.413834,110.945869 
	C136.452927,122.135612 128.662521,133.085709 120.730446,144.234924 
	C122.745247,146.078705 125.047264,146.072678 127.279022,146.208221 
	C127.922729,146.247299 129.121368,146.125992 129.155411,145.924500 
	C130.232605,139.545654 136.085770,145.586502 138.257614,141.975769 
	C137.627426,145.321991 136.222992,148.491028 133.110199,148.443924 
	C125.820328,148.333603 117.288315,152.743958 112.156166,143.163513 
	C107.955727,135.322342 107.616753,130.808945 112.267662,124.364944 
	C112.037712,128.352203 116.558510,130.935638 112.732979,134.990234 
	C111.629654,136.159607 112.956184,139.450058 115.027611,140.479568 
	C116.689102,141.305359 117.343002,139.104233 118.184265,138.081772 
	C125.269371,129.470795 132.320511,120.830482 139.255951,112.098976 
	C140.613037,110.390457 143.085449,109.134140 140.972626,105.801689 
	C138.881104,102.502861 136.804001,103.109314 134.249023,104.532150 
	C133.163849,101.883926 136.880020,101.885307 136.237381,99.801010 
	C129.574295,98.697701 126.487099,96.135727 127.449921,92.273293 
	C128.382156,88.533577 131.133789,87.374290 134.723511,87.909775 
	C138.756012,88.511292 139.840195,91.138474 138.809677,98.246025 
	C142.425323,96.903206 145.984711,95.739983 149.845032,98.850761 
	C149.647141,93.705750 147.948318,88.067162 155.385544,87.809891 
	C158.623016,87.697899 161.144623,89.203384 161.266602,92.580330 
	C161.485825,98.649673 157.050323,99.616951 152.182480,99.289795 
	C152.306915,101.871674 155.284622,101.946602 155.051987,104.440071 
	C152.813400,104.675240 150.418915,101.220963 148.365479,105.078804 
	C147.068817,107.514885 146.770340,108.935822 148.604355,111.134346 
	C155.959778,119.951630 163.091583,128.955215 170.415436,137.799362 
	C171.329803,138.903564 171.924973,141.452896 173.901489,140.432388 
	C175.919418,139.390488 177.220917,136.035614 176.029007,134.881668 
	C172.057205,131.036438 177.489761,128.445786 176.457520,125.153885 
	C179.178986,127.657227 180.829330,130.157516 179.722733,134.045334 
	C177.457520,142.003784 175.453644,150.356415 164.648636,149.208649 
	C159.368164,148.647736 152.314117,150.475067 150.085037,142.207535 
	C152.877640,142.453400 155.418640,143.443726 158.070694,143.001022 
	C158.635239,142.906799 159.743607,142.771530 159.660980,143.490570 
	C158.972931,149.477478 163.196777,145.570251 164.784576,145.715424 
	C167.224106,145.938446 168.751801,144.654877 166.487350,141.842422 
	C163.676056,138.350784 161.229141,134.565750 158.393784,130.632263 
z"/>
<path fill="#DBECF2" opacity="1.000000" stroke="none" 
	d="
M111.021317,87.027214 
	C111.445465,83.409309 113.862640,83.348427 115.026329,85.785469 
	C116.111488,88.058075 117.997177,88.433517 119.589096,89.467865 
	C118.057503,92.206291 115.746918,89.463524 114.227539,90.488144 
	C112.878929,92.162643 116.287941,92.884155 114.588455,94.659248 
	C112.810883,94.711174 112.188171,92.075371 109.818863,92.390045 
	C110.805481,95.268173 105.693237,97.896172 110.394684,101.229233 
	C106.679970,100.089455 102.794418,98.800262 102.739418,95.670113 
	C102.693565,93.060135 105.730186,90.611580 110.600876,92.814377 
	C108.578468,89.768303 107.431999,87.798683 110.621475,86.704422 
	C110.967087,86.941093 111.097176,87.089264 111.021317,87.027214 
z"/>
<path fill="#DDEFF4" opacity="1.000000" stroke="none" 
	d="
M171.709290,84.701508 
	C174.172592,80.304642 176.157806,83.054344 177.914505,84.788750 
	C179.848572,86.698273 179.341843,88.674126 176.800873,89.288490 
	C174.316925,89.889061 175.598450,92.124802 174.429596,93.239105 
	C171.628204,92.237190 173.892792,89.668053 172.755875,87.959084 
	C171.092499,86.839752 170.927567,90.150826 169.160965,89.311218 
	C168.306046,87.086708 170.728500,86.441711 171.709290,84.701508 
z"/>
<path fill="#D8EBF1" opacity="1.000000" stroke="none" 
	d="
M134.547043,74.135849 
	C135.842590,70.415009 138.511169,72.329765 140.942993,72.637016 
	C139.748901,73.143303 138.554825,73.649590 137.210815,74.219437 
	C138.102554,76.215652 140.511902,73.941910 141.209030,75.967667 
	C140.599289,78.024475 137.982285,76.112602 137.114502,78.096802 
	C138.138382,80.495636 140.807114,78.013184 142.115860,79.528481 
	C137.154953,83.086823 135.498749,81.977600 134.547043,74.135849 
z"/>
<path fill="#D8EBF1" opacity="1.000000" stroke="none" 
	d="
M169.408325,164.479111 
	C167.916412,163.831696 166.766327,163.082672 165.332672,162.242920 
	C164.790573,161.595062 164.905212,161.129898 165.786804,160.841492 
	C166.709991,157.298065 168.020813,154.339905 172.585449,153.894135 
	C171.331070,157.133286 175.712082,158.628204 175.317749,161.473297 
	C173.762741,162.275925 173.600143,160.889435 172.957092,160.325851 
	C171.756104,159.273239 171.654816,156.118515 169.404541,157.372971 
	C167.706436,158.319626 169.945160,160.187851 170.161102,162.060455 
	C170.331528,163.133881 170.365814,163.835373 169.408325,164.479111 
z"/>
<path fill="#D0E6EE" opacity="1.000000" stroke="none" 
	d="
M151.553009,74.350433 
	C149.582886,74.304901 147.373215,71.381203 146.319519,75.068893 
	C145.564056,77.712837 146.127136,79.973259 149.861084,78.325058 
	C150.737366,77.938248 150.435715,78.690872 150.378098,79.088959 
	C150.183731,80.431839 149.496628,81.210144 148.042770,80.987701 
	C145.048019,80.529518 143.710953,78.681946 143.994522,75.761566 
	C144.272812,72.895790 145.835037,71.055824 148.874084,71.359505 
	C150.251511,71.497154 151.870605,72.071655 151.553009,74.350433 
z"/>
<path fill="#ECF5F8" opacity="1.000000" stroke="none" 
	d="
M179.299225,99.781403 
	C181.075806,95.222336 176.962723,95.781197 175.165665,94.401352 
	C175.875778,93.996353 176.593048,93.226929 177.246155,93.278000 
	C179.886688,93.484436 183.474716,89.939720 184.645432,92.800797 
	C185.659775,95.279762 182.464661,98.446198 180.108414,100.675461 
	C180.071518,100.710373 179.627747,100.315262 179.299225,99.781403 
z"/>
<path fill="#E2F0F4" opacity="1.000000" stroke="none" 
	d="
M166.015320,160.683228 
	C165.880707,161.159012 165.580795,161.391693 165.164993,161.888290 
	C165.049118,162.152191 164.986832,162.577164 164.932053,162.784821 
	C164.571426,163.330826 164.199310,163.549866 163.420639,163.612091 
	C162.104309,163.798279 161.210999,161.955673 160.233276,163.704529 
	C160.349579,164.121292 160.388397,164.294449 160.417068,164.737885 
	C160.309723,165.548111 160.247253,166.088165 160.474762,166.913498 
	C160.595062,167.600250 160.543701,167.991119 160.188492,168.578949 
	C159.022766,169.031128 158.077774,169.480484 156.981750,168.417816 
	C155.381134,166.972824 154.560181,165.592682 154.959961,163.348419 
	C155.064758,160.039734 157.776138,160.854233 159.641006,159.859680 
	C160.317215,159.618073 160.619308,159.452850 161.160248,159.230469 
	C163.311157,158.124374 164.531433,159.459229 166.015320,160.683228 
z"/>
<path fill="#E2F0F4" opacity="1.000000" stroke="none" 
	d="
M184.444366,147.378662 
	C183.597305,145.725021 181.456726,144.817169 182.475296,142.990555 
	C183.436356,141.267075 185.135391,142.678589 186.470398,142.861572 
	C188.193253,143.097702 190.091721,142.866547 191.770096,144.490158 
	C190.223373,145.580353 187.408279,145.404968 187.780304,148.606430 
	C187.476929,149.344086 187.045898,149.527145 186.192886,149.481445 
	C185.175659,149.019012 184.729095,148.465988 184.444366,147.378662 
z"/>
<path fill="#DDEFF4" opacity="1.000000" stroke="none" 
	d="
M105.166611,153.233307 
	C102.236183,153.447205 102.236183,153.447205 102.620071,151.764374 
	C102.880257,151.322311 102.871437,151.094833 103.071243,150.595886 
	C103.982887,149.711349 104.807480,149.334366 106.373917,149.065079 
	C112.228539,149.226913 113.749481,151.408340 112.031540,156.660980 
	C111.487106,157.156357 111.079430,157.114700 110.524681,156.535980 
	C109.793335,155.499084 110.350998,154.309128 109.066910,153.704697 
	C107.655663,153.738297 106.544830,153.767303 105.166611,153.233307 
z"/>
<path fill="#D8EBF1" opacity="1.000000" stroke="none" 
	d="
M155.869904,78.862289 
	C156.771545,76.371841 156.764572,74.489960 153.272064,73.400085 
	C157.055466,72.486946 159.243469,73.979370 161.960968,74.816528 
	C158.411530,75.333412 158.189316,77.972717 157.566193,80.419250 
	C157.363907,81.213486 157.038681,82.700760 155.695511,81.883415 
	C154.584015,81.207024 155.648087,80.125679 155.869904,78.862289 
z"/>
<path fill="#DBECF2" opacity="1.000000" stroke="none" 
	d="
M121.042747,83.613388 
	C121.464615,88.427811 124.102745,83.337204 125.556305,85.479431 
	C124.241776,86.637604 122.285583,89.068642 121.083214,87.876328 
	C119.183205,85.992188 115.189407,84.313019 117.661880,80.088593 
	C118.461494,79.744827 118.865036,79.825523 119.088524,80.640045 
	C119.105057,81.555542 119.208168,82.115814 119.580788,82.800629 
	C120.348106,82.701622 120.764931,82.792114 121.042747,83.613388 
z"/>
<path fill="#D0E6EE" opacity="1.000000" stroke="none" 
	d="
M120.382782,165.558456 
	C123.483650,164.751648 121.879631,160.189880 125.012123,159.169830 
	C126.955940,161.991699 120.530014,165.391205 126.495522,167.666870 
	C123.423347,168.465988 121.786346,167.758545 120.382782,165.558456 
z"/>
<path fill="#D0E6EE" opacity="1.000000" stroke="none" 
	d="
M128.062485,82.290138 
	C127.351639,81.689613 126.883095,81.014893 126.554909,80.277695 
	C124.269341,75.143585 124.405006,74.945877 131.086243,74.081612 
	C127.986229,75.533463 128.196152,77.796463 129.026093,80.627998 
	C128.742630,81.409988 128.557190,81.798996 128.062485,82.290138 
z"/>
<path fill="#E8F5F8" opacity="1.000000" stroke="none" 
	d="
M141.221802,167.905472 
	C140.652573,169.136932 141.874329,170.861115 139.365417,171.067871 
	C137.167847,168.711472 137.337509,166.295212 138.808136,163.417435 
	C141.418228,163.051163 143.977356,161.726334 145.997650,164.505737 
	C146.184921,165.090317 146.326523,165.274307 146.492737,165.805176 
	C146.384048,166.595856 146.148132,166.972031 145.471375,167.369537 
	C144.722198,167.463974 144.307480,167.369141 143.677383,166.984940 
	C143.137558,166.597549 142.813416,166.479980 142.250061,166.686249 
	C141.840546,167.144653 141.618622,167.421783 141.221802,167.905472 
z"/>
<path fill="#C6E0E9" opacity="1.000000" stroke="none" 
	d="
M184.292236,147.374969 
	C184.884232,147.502609 185.378189,147.986801 185.990570,148.705566 
	C186.442383,149.507858 186.573685,150.119049 186.324493,151.218109 
	C185.471054,154.658157 182.785599,151.494019 181.574860,153.529388 
	C180.488953,153.951019 179.883530,153.305054 179.117645,152.361374 
	C178.664154,150.877167 179.412476,150.578278 180.653564,150.314697 
	C182.266296,149.679077 182.398178,147.594635 184.292236,147.374969 
z"/>
<path fill="#277EA6" opacity="1.000000" stroke="none" 
	d="
M160.183075,163.595062 
	C159.188141,163.526886 158.282135,164.172501 157.675903,163.329453 
	C156.778275,162.081177 158.081924,162.057938 158.737350,161.878815 
	C160.153397,161.491821 161.754959,159.861862 163.047302,162.648712 
	C164.306213,163.840408 165.072220,164.900574 165.146957,166.645142 
	C164.720535,166.998352 164.388214,167.029755 163.807953,167.025024 
	C162.691101,167.362671 161.807358,167.670029 160.395813,167.438751 
	C158.363876,166.901016 157.193192,166.405731 159.646255,164.909378 
	C160.309937,164.563248 160.466812,164.229736 160.183075,163.595062 
z"/>
<path fill="#D4E8F0" opacity="1.000000" stroke="none" 
	d="
M163.749817,84.046310 
	C165.793915,85.053955 166.635727,83.932541 167.574783,82.613388 
	C168.463455,81.365005 168.505310,79.327843 170.606735,79.043404 
	C170.275299,84.879799 167.723526,87.133728 163.092865,85.319305 
	C162.998779,84.657791 163.190186,84.358490 163.749817,84.046310 
z"/>
<path fill="#D4E8F0" opacity="1.000000" stroke="none" 
	d="
M146.155060,166.179214 
	C145.973328,165.749710 145.970703,165.579910 146.005707,165.158234 
	C146.753632,164.298538 147.463959,163.690750 148.452698,162.978256 
	C149.158020,162.625885 149.575623,162.626404 150.167648,163.208191 
	C150.376434,165.503647 150.453232,167.490295 152.684326,169.342056 
	C150.902435,172.177414 149.285645,170.336502 147.032471,169.452240 
	C145.847519,168.522797 146.168533,167.476944 146.155060,166.179214 
z"/>
<path fill="#DDEFF4" opacity="1.000000" stroke="none" 
	d="
M138.195038,170.643661 
	C136.006546,171.182877 135.737076,168.237198 133.301758,168.541626 
	C132.681625,168.039139 132.586456,167.634232 132.770721,166.893951 
	C133.680893,165.664169 133.556198,164.523972 133.759338,163.109604 
	C135.318115,161.088577 135.878647,162.409180 136.702576,163.782166 
	C138.434509,165.863480 138.268768,168.122894 138.195038,170.643661 
z"/>
<path fill="#D4E8F0" opacity="1.000000" stroke="none" 
	d="
M101.100082,146.047760 
	C99.711861,146.506180 98.511513,146.794571 96.491119,147.279953 
	C98.737686,144.153931 101.032593,141.778137 103.991730,142.136017 
	C105.453094,142.312729 103.648468,144.863983 102.825020,146.808777 
	C102.283340,147.278381 102.110199,147.256165 101.779587,147.028610 
	C101.591949,146.479385 101.485001,146.162628 101.100082,146.047760 
z"/>
<path fill="#E2F0F4" opacity="1.000000" stroke="none" 
	d="
M163.970779,83.607185 
	C163.807449,84.244522 163.600250,84.518967 163.160645,84.912285 
	C160.022766,80.847794 164.046127,78.979301 165.790344,75.315842 
	C166.966232,79.144524 163.723206,80.719215 163.970779,83.607185 
z"/>
<path fill="#D8EBF1" opacity="1.000000" stroke="none" 
	d="
M110.448868,155.686691 
	C110.977280,155.910233 111.197197,156.263824 111.672661,156.800018 
	C113.452576,158.380005 114.166451,155.140762 115.903954,156.578079 
	C114.837372,158.804581 112.874756,160.228333 110.539574,160.349777 
	C108.967346,160.431534 109.590744,158.706604 109.881706,157.329117 
	C109.738373,156.569885 109.811676,156.166412 110.448868,155.686691 
z"/>
<path fill="#D4E8F0" opacity="1.000000" stroke="none" 
	d="
M117.618088,158.884979 
	C118.776428,157.569214 119.730469,156.233795 121.035858,157.345566 
	C122.373894,158.485153 121.043724,159.991211 120.936722,161.673370 
	C120.248260,162.687057 119.534035,163.108673 118.291962,163.085510 
	C117.357697,162.799805 116.743240,162.539276 115.825134,162.135193 
	C116.757896,161.564194 116.779305,160.268250 117.618088,158.884979 
z"/>
<path fill="#D4E8F0" opacity="1.000000" stroke="none" 
	d="
M143.676376,165.782120 
	C144.113708,166.345001 144.306946,166.599136 144.804047,166.897614 
	C145.899384,167.645523 146.145859,168.680923 146.821320,169.805389 
	C147.011429,170.044922 146.985535,169.998276 146.970520,169.976288 
	C146.222351,172.013107 145.151733,171.387466 144.112732,170.262833 
	C143.365250,169.453751 143.061264,168.189072 141.384872,168.069824 
	C141.042145,167.630524 141.030090,167.143204 141.026123,166.290314 
	C141.738831,165.402786 142.505341,165.252335 143.676376,165.782120 
z"/>
<path fill="#C6E0E9" opacity="1.000000" stroke="none" 
	d="
M105.018288,153.330093 
	C106.248817,153.269073 107.693138,151.398239 109.208450,153.518768 
	C109.964424,154.813248 109.698975,155.712524 108.827782,156.632477 
	C107.563255,158.146378 106.376915,158.852707 106.397018,156.435349 
	C106.408585,155.044769 105.878143,154.409195 105.018288,153.330093 
z"/>
<path fill="#D0E6EE" opacity="1.000000" stroke="none" 
	d="
M172.990860,153.950760 
	C174.247757,153.648773 173.240997,151.151825 175.648926,151.712921 
	C177.215530,152.024002 177.972214,152.873444 178.957672,153.964493 
	C179.270538,154.440018 179.374878,154.644089 179.548264,155.185776 
	C179.598160,156.257797 179.328888,156.849991 178.321259,157.141159 
	C176.190170,156.300308 175.812469,153.777679 173.269653,153.721207 
	C172.938660,153.919220 172.985718,153.928726 172.990860,153.950760 
z"/>
<path fill="#D0E6EE" opacity="1.000000" stroke="none" 
	d="
M101.783676,147.323502 
	C101.994041,147.002487 102.449974,147.010071 102.677887,147.016144 
	C103.361305,149.096375 107.657661,142.561584 106.706589,148.806732 
	C107.052437,149.049835 107.021675,149.020996 107.023117,149.030289 
	C105.921616,149.622162 104.656578,149.756210 103.162552,150.251526 
	C101.834839,149.609818 101.333832,148.802567 101.783676,147.323502 
z"/>
<path fill="#0772A0" opacity="1.000000" stroke="none" 
	d="
M138.213593,170.991776 
	C137.606064,168.924789 137.255646,166.864731 136.909698,164.407974 
	C137.447937,163.749939 137.981674,163.488586 138.794296,163.123413 
	C139.052322,165.385803 139.031479,167.752029 138.997833,170.561935 
	C138.813583,171.003326 138.642136,171.001007 138.213593,170.991776 
z"/>
<path fill="#4994B4" opacity="1.000000" stroke="none" 
	d="
M154.787689,162.977493 
	C156.452698,164.117599 155.974182,166.011215 156.801270,167.735123 
	C156.527664,168.067932 156.240829,168.085602 155.744751,168.091400 
	C154.350082,168.484344 153.837448,167.492920 152.908875,166.628540 
	C152.472549,165.896835 152.357742,165.428894 152.392365,164.578949 
	C152.668671,163.773468 152.978638,163.409775 153.737823,163.039490 
	C154.090546,162.950653 154.555573,162.962677 154.787689,162.977493 
z"/>
<path fill="#DDEFF4" opacity="1.000000" stroke="none" 
	d="
M118.113983,163.407059 
	C118.446556,162.162354 119.275368,162.006027 120.506905,162.007111 
	C120.723061,162.860703 120.611115,163.713074 120.297630,164.949585 
	C120.096085,165.333740 120.033913,165.411377 120.058159,165.420380 
	C117.656563,166.851562 118.952568,164.216507 118.113983,163.407059 
z"/>
<path fill="#ECF5F8" opacity="1.000000" stroke="none" 
	d="
M101.997139,147.001389 
	C102.237862,147.784592 102.481689,148.566681 102.850243,149.635406 
	C103.162498,150.196075 103.350029,150.470123 103.252525,151.152679 
	C102.967499,151.561188 102.819023,151.562744 102.854050,151.556274 
	C100.506409,151.191208 98.910255,150.398499 100.922241,147.356720 
	C101.231369,146.837723 101.383148,146.663162 101.766090,146.747345 
	C101.997253,147.006104 102.000237,147.000290 101.997139,147.001389 
z"/>
<path fill="#DDEFF4" opacity="1.000000" stroke="none" 
	d="
M117.528290,158.553131 
	C117.852158,159.579636 117.509346,160.619690 116.002724,161.667877 
	C115.000999,162.701797 114.303658,163.346466 113.481659,162.722855 
	C112.588799,162.045425 113.005959,161.390778 113.884964,160.878342 
	C115.022797,160.215042 116.099709,159.447250 117.528290,158.553131 
z"/>
<path fill="#C6E0E9" opacity="1.000000" stroke="none" 
	d="
M133.615051,162.968796 
	C133.666580,164.195908 137.397125,165.827911 133.307892,167.027679 
	C132.608139,166.940369 132.299042,166.752441 131.968216,166.200928 
	C132.379211,165.006180 132.868164,164.079102 133.615051,162.968796 
z"/>
<path fill="#E8F5F8" opacity="1.000000" stroke="none" 
	d="
M180.611801,150.066345 
	C180.396469,150.608673 179.852798,151.047989 178.941238,151.943710 
	C177.563782,152.762939 176.911926,152.281372 176.212677,151.208542 
	C176.780243,147.706375 178.773239,149.887238 180.611801,150.066345 
z"/>
<path fill="#E8F5F8" opacity="1.000000" stroke="none" 
	d="
M178.865158,152.132568 
	C180.127396,151.974701 180.753983,152.571701 181.282593,153.741577 
	C182.077255,154.598373 183.624191,155.196259 181.325073,156.001114 
	C180.391525,156.026489 179.851212,155.848083 179.212219,155.169434 
	C179.015976,154.946075 178.996918,155.001373 179.026169,155.001587 
	C178.552261,154.550034 178.407074,153.926010 178.277161,152.993805 
	C178.435104,152.555298 178.557968,152.434509 178.865158,152.132568 
z"/>
<path fill="#FBFCFD" opacity="1.000000" stroke="none" 
	d="
M131.593658,166.115265 
	C132.171112,166.138733 132.451965,166.344223 132.857544,166.783539 
	C132.998856,167.325394 132.985046,167.632065 132.945312,168.167938 
	C132.036987,168.744247 131.623215,170.832672 130.385284,169.593079 
	C129.241806,168.448059 131.417542,167.548004 131.593658,166.115265 
z"/>
<path fill="#D0E6EE" opacity="1.000000" stroke="none" 
	d="
M153.812683,162.708344 
	C153.897308,163.325455 153.704086,163.700272 153.206345,164.196228 
	C152.143005,164.798431 151.358521,164.791550 150.274063,164.140076 
	C149.737473,163.589142 149.482742,163.338989 148.979553,162.981201 
	C150.226913,161.494949 151.860580,161.741348 153.812683,162.708344 
z"/>
<path fill="#277EA6" opacity="1.000000" stroke="none" 
	d="
M178.949829,155.251770 
	C179.811493,153.989151 180.171692,155.051987 180.861725,155.635101 
	C180.686722,157.602142 180.566956,159.599075 178.051697,157.379791 
	C178.285172,156.565353 178.584427,156.061401 178.949829,155.251770 
z"/>
<path fill="#277EA6" opacity="1.000000" stroke="none" 
	d="
M108.818863,156.766205 
	C108.720383,155.921494 108.975029,155.172974 109.304596,154.139786 
	C109.827362,153.308899 110.275208,152.762711 110.723061,152.216507 
	C111.418213,153.059616 110.942917,153.969482 110.815491,155.206406 
	C110.552551,155.873718 110.347748,156.190811 110.014862,156.763977 
	C109.648514,156.967514 109.410248,156.914963 108.818863,156.766205 
z"/>
<path fill="#D8EBF1" opacity="1.000000" stroke="none" 
	d="
M152.570007,165.638885 
	C154.043930,165.771301 154.966339,166.056717 155.350479,167.702271 
	C155.500137,168.231094 155.466843,168.416489 155.233307,168.801208 
	C154.633728,169.327927 154.173553,169.468903 153.301712,169.341675 
	C152.464340,168.039734 149.177658,167.391769 152.570007,165.638885 
z"/>
<path fill="#D4E8F0" opacity="1.000000" stroke="none" 
	d="
M121.300247,83.845963 
	C120.774284,83.709679 120.551506,83.437042 120.089516,83.044792 
	C120.894859,82.016235 121.791786,80.821297 123.678398,81.058029 
	C123.854736,82.668686 122.362709,82.934372 121.300247,83.845963 
z"/>
<path fill="#D8EBF1" opacity="1.000000" stroke="none" 
	d="
M119.314178,80.860802 
	C118.886871,80.675163 118.691689,80.415199 118.197052,80.102280 
	C118.991249,78.978867 119.970627,77.906975 121.795059,77.926079 
	C121.973961,79.644226 120.372665,79.879089 119.314178,80.860802 
z"/>
<path fill="#277EA6" opacity="1.000000" stroke="none" 
	d="
M178.099426,152.475754 
	C178.737289,153.276581 179.162308,153.877045 179.321381,154.739655 
	C177.568588,154.759933 177.118118,153.347824 176.103241,152.151520 
	C176.011063,151.834091 175.968613,151.385620 175.998779,151.162384 
	C176.648148,151.384567 177.267365,151.829987 178.099426,152.475754 
z"/>
<path fill="#D4E8F0" opacity="1.000000" stroke="none" 
	d="
M165.379807,166.861069 
	C164.472641,165.846161 163.892441,164.725403 163.261658,163.292358 
	C163.581329,162.984482 163.951584,162.988861 164.599548,162.992859 
	C165.345627,164.204407 166.705536,165.219818 165.379807,166.861069 
z"/>
<path fill="#C6E0E9" opacity="1.000000" stroke="none" 
	d="
M159.954407,167.532181 
	C160.859283,167.091278 161.765472,166.901016 163.115845,166.849823 
	C163.137100,168.452438 161.645004,168.191193 160.321289,168.780609 
	C159.962112,168.451172 159.958908,168.116989 159.954407,167.532181 
z"/>
<path fill="#E2F0F4" opacity="1.000000" stroke="none" 
	d="
M127.818855,82.706635 
	C127.974152,82.048195 128.193069,81.703140 128.669128,81.189102 
	C129.356384,81.803368 130.289871,82.589935 129.589935,83.503349 
	C128.935852,84.356903 128.264877,83.871681 127.818855,82.706635 
z"/>
<path fill="#D4E8F0" opacity="1.000000" stroke="none" 
	d="
M186.460846,151.482361 
	C186.123138,151.057480 186.100510,150.452347 186.093460,149.393661 
	C186.490997,148.955795 186.872955,148.971481 187.542526,148.987518 
	C188.416306,150.186371 187.574997,150.734619 186.460846,151.482361 
z"/>
<path fill="#D4E8F0" opacity="1.000000" stroke="none" 
	d="
M169.375763,164.735260 
	C169.388504,164.055740 169.710526,163.530746 170.131805,162.710968 
	C171.130951,163.479538 171.537521,164.433990 169.375763,164.735260 
z"/>
<path fill="#D0E6EE" opacity="1.000000" stroke="none" 
	d="
M101.995102,146.712051 
	C101.997253,147.006104 101.538391,147.004181 101.308990,147.008224 
	C101.079597,147.012268 100.933052,146.628281 100.922638,146.423035 
	C101.077065,145.803680 101.296501,145.018936 101.398163,145.033905 
	C102.234337,145.157074 101.873047,145.906479 101.995102,146.712051 
z"/>
<path fill="#D4E8F0" opacity="1.000000" stroke="none" 
	d="
M152.959930,169.178040 
	C153.701538,168.997284 154.081894,168.998932 154.747665,169.000580 
	C154.838287,169.743515 154.251190,169.945602 153.269989,169.999817 
	C152.949158,169.952957 152.991089,169.997742 153.010178,170.021744 
	C152.885742,169.817322 152.742218,169.588882 152.959930,169.178040 
z"/>
<path fill="#277EA6" opacity="1.000000" stroke="none" 
	d="
M161.147736,159.185196 
	C161.125443,159.397614 160.832123,159.585922 160.267090,159.760712 
	C160.289154,159.551819 160.582932,159.356445 161.147736,159.185196 
z"/>
<path fill="#0772A0" opacity="1.000000" stroke="none" 
	d="
M136.117706,96.097885 
	C133.639496,97.597687 131.626938,97.555092 130.210678,95.287033 
	C129.361816,93.927620 129.431290,92.343719 130.418976,91.052849 
	C131.575409,89.541412 133.296570,89.283531 134.926987,90.001801 
	C137.743729,91.242691 137.621277,93.429642 136.117706,96.097885 
z"/>
<path fill="#1276A2" opacity="1.000000" stroke="none" 
	d="
M154.257538,90.021988 
	C157.158661,89.725815 158.871231,90.714836 159.098236,93.335449 
	C159.260010,95.203163 158.095963,96.440987 156.380829,96.959648 
	C154.857071,97.420456 153.358276,97.119514 152.520386,95.618881 
	C151.305374,93.442863 151.637375,91.528130 154.257538,90.021988 
z"/>
<path fill="#1276A2" opacity="1.000000" stroke="none" 
	d="
M145.967712,99.069984 
	C148.893524,100.547180 147.872177,102.000153 146.390808,103.334404 
	C145.594681,104.051460 145.181641,106.238708 143.521729,104.627319 
	C142.408676,103.546814 140.394424,102.176247 141.163116,100.741951 
	C141.773773,99.602509 143.142670,96.922058 145.967712,99.069984 
z"/>
<path fill="#3284A9" opacity="1.000000" stroke="none" 
	d="
M106.562408,96.671112 
	C105.142860,96.461990 104.501648,95.804855 105.237625,94.680847 
	C105.728889,93.930557 106.588997,93.626587 107.305481,94.376129 
	C108.068542,95.174377 107.214859,95.836357 106.562408,96.671112 
z"/>
<path fill="#3284A9" opacity="1.000000" stroke="none" 
	d="
M110.973495,86.980377 
	C111.820900,87.126106 112.912910,86.028625 113.559120,87.229866 
	C114.038383,88.120758 113.203598,88.727249 112.540146,89.061531 
	C111.238464,89.717400 110.829880,89.030609 110.971619,87.362045 
	C110.967087,86.941093 111.001534,86.995598 110.973495,86.980377 
z"/>
<path fill="#3284A9" opacity="1.000000" stroke="none" 
	d="
M174.547073,86.947838 
	C173.852859,85.788033 173.496201,84.742912 175.102814,84.880707 
	C176.077393,84.964302 176.963745,85.703133 176.709412,86.796181 
	C176.468628,87.831032 175.603745,87.666252 174.547073,86.947838 
z"/>
<path fill="#C6E0E9" opacity="1.000000" stroke="none" 
	d="
M159.959473,163.745712 
	C160.636826,163.141159 161.439713,162.694748 161.689194,163.772385 
	C161.747864,164.025818 160.950348,164.477463 160.255280,164.826324 
	C159.961288,164.577164 159.958755,164.339615 159.959473,163.745712 
z"/>
<path fill="#0272A1" opacity="1.000000" stroke="none" 
	d="
M103.291771,151.395050 
	C102.847931,151.287460 102.728363,151.013718 102.791893,150.331024 
	C104.192703,149.376617 105.410431,148.831207 106.826355,148.662689 
	C106.483490,150.695862 104.805878,150.582687 103.291771,151.395050 
z"/>
<path fill="#0272A1" opacity="1.000000" stroke="none" 
	d="
M147.346313,169.769775 
	C145.784348,169.722443 145.463394,168.623581 144.997742,167.338318 
	C145.312256,166.822083 145.604050,166.635712 145.935883,166.184418 
	C147.543655,166.634567 146.788605,168.457550 147.346313,169.769775 
z"/>
<path fill="#1276A2" opacity="1.000000" stroke="none" 
	d="
M144.062500,165.670441 
	C143.259872,166.048615 142.511795,166.072861 141.398956,166.010925 
	C141.595490,163.358322 142.698242,163.536453 144.062500,165.670441 
z"/>
<path fill="#1276A2" opacity="1.000000" stroke="none" 
	d="
M153.227448,168.695145 
	C153.264999,169.168564 153.208817,169.341476 153.090958,169.780075 
	C150.455124,169.001312 147.699417,168.071625 149.701538,164.079285 
	C150.728302,163.913910 151.464417,163.988510 152.551178,164.190231 
	C152.896164,164.639603 152.903458,164.961563 152.923141,165.524780 
	C149.248367,166.943283 153.874252,167.453400 153.227448,168.695145 
z"/>
</svg>